<?xml version="1.0" standalone="no"?>
<!DOCTYPE svg PUBLIC "-//W3C//DTD SVG 20010904//EN"
 "http://www.w3.org/TR/2001/REC-SVG-20010904/DTD/svg10.dtd">
<svg version="1.0" xmlns="http://www.w3.org/2000/svg"
 width="512.000000pt" height="512.000000pt" viewBox="0 0 512.000000 512.000000"
 preserveAspectRatio="xMidYMid meet">

<g transform="translate(0.000000,512.000000) scale(0.100000,-0.100000)"
fill="#000000" stroke="none">
<path d="M558 4678 l202 -203 202 203 203 202 -405 0 -405 0 203 -202z"/>
<path d="M1315 4800 l-80 -80 243 -243 242 -242 322 323 323 322 -485 0 -485
0 -80 -80z"/>
<path d="M2640 4600 l0 -280 240 0 240 0 0 280 0 280 -240 0 -240 0 0 -280z"/>
<path d="M3280 4600 l0 -280 200 0 200 0 0 280 0 280 -200 0 -200 0 0 -280z"/>
<path d="M3840 4600 l0 -280 200 0 200 0 0 280 0 280 -200 0 -200 0 0 -280z"/>
<path d="M4400 4600 l0 -280 240 0 240 0 0 280 0 280 -240 0 -240 0 0 -280z"/>
<path d="M240 4360 l0 -405 202 203 203 202 -203 202 -202 203 0 -405z"/>
<path d="M1975 4260 l-500 -500 243 -242 242 -243 260 260 260 260 -2 483 -3
482 -500 -500z"/>
<path d="M815 4300 l-300 -300 243 -242 242 -243 302 302 303 303 -240 240
c-132 132 -242 240 -245 240 -3 0 -140 -135 -305 -300z"/>
<path d="M2640 4000 l0 -160 240 0 240 0 0 160 0 160 -240 0 -240 0 0 -160z"/>
<path d="M3280 4000 l0 -160 200 0 200 0 0 160 0 160 -200 0 -200 0 0 -160z"/>
<path d="M3840 4000 l0 -160 200 0 200 0 0 160 0 160 -200 0 -200 0 0 -160z"/>
<path d="M4400 4000 l0 -160 240 0 240 0 0 160 0 160 -240 0 -240 0 0 -160z"/>
<path d="M317 3802 l-77 -77 0 -485 0 -485 322 322 323 323 -240 240 c-132
132 -242 240 -245 240 -3 0 -40 -35 -83 -78z"/>
<path d="M2640 3520 l0 -160 240 0 240 0 0 160 0 160 -240 0 -240 0 0 -160z"/>
<path d="M3280 3520 l0 -160 200 0 200 0 0 160 0 160 -200 0 -200 0 0 -160z"/>
<path d="M3840 3520 l0 -160 200 0 200 0 0 160 0 160 -200 0 -200 0 0 -160z"/>
<path d="M4400 3520 l0 -160 240 0 240 0 0 160 0 160 -240 0 -240 0 0 -160z"/>
<path d="M855 3140 l-500 -500 485 0 485 0 260 260 260 260 -240 240 c-132
132 -242 240 -245 240 -3 0 -230 -225 -505 -500z"/>
<path d="M2015 3100 l-460 -460 463 0 462 0 0 460 c0 253 -1 460 -3 460 -1 0
-209 -207 -462 -460z"/>
<path d="M2640 2920 l0 -280 240 0 240 0 0 280 0 280 -240 0 -240 0 0 -280z"/>
<path d="M3280 2920 l0 -280 200 0 200 0 0 280 0 280 -200 0 -200 0 0 -280z"/>
<path d="M3840 2920 l0 -280 200 0 200 0 0 280 0 280 -200 0 -200 0 0 -280z"/>
<path d="M4400 2920 l0 -280 240 0 240 0 0 280 0 280 -240 0 -240 0 0 -280z"/>
<path d="M240 2258 l0 -223 220 220 c121 121 220 221 220 222 0 2 -99 3 -220
3 l-220 0 0 -222z"/>
<path d="M577 2142 l-337 -338 2 -202 3 -202 540 540 540 540 -205 0 -205 0
-338 -338z"/>
<path d="M2095 2100 l380 -380 3 242 2 242 -137 138 -138 138 -245 0 -245 0
380 -380z"/>
<path d="M2455 2460 c10 -11 20 -20 22 -20 1 0 3 9 3 20 0 14 -7 20 -22 20
-20 0 -21 -1 -3 -20z"/>
<path d="M2640 1360 l0 -1120 101 0 100 0 -20 26 c-44 56 -34 74 121 231 l142
143 -142 143 c-126 127 -142 147 -142 177 0 30 16 50 142 177 l142 143 -142
143 c-126 127 -142 147 -142 177 0 30 16 50 142 177 l142 143 -142 143 c-182
184 -180 171 -40 313 l102 104 -182 0 -182 0 0 -1120z"/>
<path d="M3115 2360 l-119 -120 142 -143 c126 -127 142 -147 142 -177 0 -30
-16 -50 -142 -177 l-142 -143 142 -143 c126 -127 142 -147 142 -177 0 -30 -16
-50 -142 -177 l-142 -143 142 -143 c126 -127 142 -147 142 -177 0 -30 -16 -50
-142 -177 l-142 -143 39 -40 39 -40 124 0 123 0 -20 26 c-44 56 -34 74 121
231 l142 143 -142 143 c-126 127 -142 147 -142 177 0 30 16 50 142 177 l142
143 -142 143 c-126 127 -142 147 -142 177 0 30 16 50 142 177 l142 143 -142
143 c-182 184 -180 171 -40 313 l102 104 -125 0 -124 0 -120 -120z"/>
<path d="M3595 2360 l-119 -120 142 -143 c126 -127 142 -147 142 -177 0 -30
-16 -50 -142 -177 l-142 -143 142 -143 c126 -127 142 -147 142 -177 0 -30 -16
-50 -142 -177 l-142 -143 142 -143 c126 -127 142 -147 142 -177 0 -30 -16 -50
-142 -177 l-142 -143 39 -40 39 -40 124 0 123 0 -20 26 c-44 56 -34 74 121
231 l142 143 -142 143 c-126 127 -142 147 -142 177 0 30 16 50 142 177 l142
143 -142 143 c-126 127 -142 147 -142 177 0 30 16 50 142 177 l142 143 -142
143 c-182 184 -180 171 -40 313 l102 104 -125 0 -124 0 -120 -120z"/>
<path d="M4075 2360 l-119 -120 142 -143 c126 -127 142 -147 142 -177 0 -30
-16 -50 -142 -177 l-142 -143 142 -143 c126 -127 142 -147 142 -177 0 -30 -16
-50 -142 -177 l-142 -143 142 -143 c126 -127 142 -147 142 -177 0 -30 -16 -50
-142 -177 l-142 -143 39 -40 39 -40 124 0 123 0 -20 26 c-44 56 -34 74 121
231 l142 143 -142 143 c-126 127 -142 147 -142 177 0 30 16 50 142 177 l142
143 -142 143 c-126 127 -142 147 -142 177 0 30 16 50 142 177 l142 143 -142
143 c-182 184 -180 171 -40 313 l102 104 -125 0 -124 0 -120 -120z"/>
<path d="M4555 2360 l-119 -120 142 -143 c126 -127 142 -147 142 -177 0 -30
-16 -50 -142 -177 l-142 -143 142 -143 c126 -127 142 -147 142 -177 0 -30 -16
-50 -142 -177 l-142 -143 142 -143 c126 -127 142 -147 142 -177 0 -30 -16 -50
-142 -177 l-142 -143 39 -40 39 -40 183 0 183 0 0 1120 0 1120 -103 0 -102 0
-120 -120z"/>
<path d="M1415 2340 l-100 -100 583 -583 582 -582 0 205 0 205 -478 478 c-262
262 -479 477 -482 477 -3 0 -50 -45 -105 -100z"/>
<path d="M717 1642 l-477 -477 0 -205 0 -205 582 582 583 583 -100 100 c-55
55 -102 100 -105 100 -3 0 -220 -215 -483 -478z"/>
<path d="M1415 1700 l-100 -100 583 -583 582 -582 0 205 0 205 -478 478 c-262
262 -479 477 -482 477 -3 0 -50 -45 -105 -100z"/>
<path d="M717 1002 l-477 -477 0 -143 0 -142 63 0 62 0 520 520 520 520 -100
100 c-55 55 -102 100 -105 100 -3 0 -220 -215 -483 -478z"/>
<path d="M1415 1060 l-100 -100 360 -360 360 -360 205 0 205 0 -460 460 c-253
253 -462 460 -465 460 -3 0 -50 -45 -105 -100z"/>
<path d="M895 540 l-300 -300 205 0 205 0 200 200 200 200 -100 100 c-55 55
-102 100 -105 100 -3 0 -140 -135 -305 -300z"/>
<path d="M1415 420 l-99 -100 39 -40 39 -40 205 0 206 0 -140 140 c-77 77
-142 140 -145 140 -3 0 -50 -45 -105 -100z"/>
</g>
</svg>
